<?xml version="1.0" encoding="utf-8"?>
<svg viewBox="0 0 510.24 78.91" width="1380.7" height="213.6" xmlns="http://www.w3.org/2000/svg">
  <defs>
    <style>
      .cls-1 {
        fill: #00233d;
      }
    </style>
  </defs>
  <g id="Layer_1-2" data-name="Layer 1">
    <g>
      <path class="cls-1" d="m467.32,46.21v-1.23c0-.23.04-.39.1-.47.07-.07.23-.12.48-.12h.97c.65,0,1.08-.19,1.29-.57.11-.19.18-.4.22-.63.03-.23.05-.63.05-1.2v-9.3c0-.24.04-.39.12-.46s.25-.1.5-.1h1.62c.25,0,.41.04.49.1.08.07.12.22.12.46v9.41c0,.88-.07,1.6-.22,2.16s-.38,1.02-.71,1.39c-.68.74-1.76,1.1-3.23,1.1h-1.21c-.25,0-.41-.04-.48-.11-.07-.07-.1-.22-.1-.45"/>
      <path class="cls-1" d="m482.02,41.81v-9.11c0-.24.04-.39.12-.46s.24-.1.49-.1h1.63c.25,0,.41.04.49.1.08.07.12.22.12.46v9c0,1.06.2,1.79.61,2.2.45.49,1.16.74,2.13.74s1.67-.25,2.14-.74c.4-.44.6-1.18.6-2.2v-9c0-.24.04-.39.12-.46.07-.07.24-.1.49-.1h1.62c.25,0,.42.04.5.1.08.07.12.22.12.46v9.11c0,.92-.11,1.69-.33,2.3-.22.62-.56,1.15-1.04,1.6-.86.84-2.27,1.26-4.23,1.26s-3.35-.42-4.21-1.26c-.92-.86-1.38-2.16-1.38-3.9"/>
      <path class="cls-1" d="m500.46,36.21v-.3c0-1.42.44-2.46,1.31-3.12.78-.57,2.03-.85,3.73-.85,1.34,0,2.55.17,3.64.52.19.06.31.14.37.22.06.09.06.23.02.43l-.34,1.42c-.04.22-.17.33-.39.33-.09,0-.19-.02-.31-.06-1.08-.36-2.05-.54-2.91-.54s-1.47.11-1.81.33c-.35.24-.52.7-.52,1.37v.18c0,.54.12.92.36,1.17.26.26.77.47,1.51.62l1.65.34c1.35.29,2.28.75,2.79,1.38.46.58.68,1.44.68,2.59v.35c0,1.49-.41,2.59-1.23,3.32-.79.71-2.17,1.06-4.14,1.06-.58,0-1.24-.06-1.97-.19s-1.37-.28-1.92-.46c-.22-.07-.37-.15-.44-.25-.07-.1-.09-.25-.04-.47l.25-1.31c.04-.28.17-.42.39-.42.07,0,.16.02.25.06.49.19,1.06.36,1.71.5.66.14,1.23.22,1.69.22,1.07,0,1.81-.17,2.2-.5.17-.14.3-.33.36-.55.06-.23.09-.53.09-.9v-.18c0-.58-.09-.98-.28-1.21-.23-.28-.74-.51-1.53-.7l-1.56-.34c-.73-.16-1.3-.34-1.71-.53-.41-.19-.76-.44-1.05-.76-.57-.62-.86-1.53-.86-2.75"/>
      <path class="cls-1" d="m236.35,60.41c-2.69.28-9.64.36-13.82.36-9.92,0-15.09-3.75-15.09-13.18v-27.28c0-9.43,5.17-13.19,15.09-13.19,4.18,0,10.84.14,13.82.43.43.07.71.57.71.99v3.54c0,.5-.28.86-.78.86h-13.68c-7.52,0-8.72,1.98-8.72,7.37v9.85h21.76c.78,0,1.42.64,1.42,1.42v2.69c0,.78-.64,1.42-1.42,1.42h-21.76v11.91c0,5.39,1.2,7.37,8.72,7.37h13.68c.5,0,.78.35.78.86v3.61c0,.43-.28.92-.71.99"/>
      <path class="cls-1" d="m256.65,60.77c-2.62,0-7.73-.28-11.2-1.06-.92-.22-1.49-.63-1.49-1.41v-2.48c0-.64.57-1.07,1.28-1.07h.28c3.4.43,8.58.78,11.13.78,4.61,0,7.02-1.2,7.02-5.03,0-2.13-1.28-3.47-5.32-5.88l-7.16-4.26c-4.32-2.62-7.23-5.67-7.23-10.14,0-7.37,5.53-9.43,12.83-9.43,3.97,0,7.73.36,11.05.92.92.14,1.35.64,1.35,1.42v2.34c0,.85-.5,1.2-1.2,1.2h-.22c-2.48-.21-7.02-.57-10.99-.57s-6.59.51-6.59,4.12c0,2.13,1.63,3.48,4.89,5.39l7.02,4.18c5.88,3.48,7.79,6.52,7.79,10.7,0,7.23-5.32,10.28-13.25,10.28"/>
      <path class="cls-1" d="m288.69,60.77c-2.62,0-7.73-.28-11.2-1.06-.92-.22-1.49-.63-1.49-1.41v-2.48c0-.64.56-1.07,1.27-1.07h.28c3.4.43,8.58.78,11.13.78,4.61,0,7.01-1.2,7.01-5.03,0-2.13-1.27-3.47-5.31-5.88l-7.16-4.26c-4.32-2.62-7.23-5.67-7.23-10.14,0-7.37,5.53-9.43,12.82-9.43,3.97,0,7.73.36,11.06.92.92.14,1.34.64,1.34,1.42v2.34c0,.85-.49,1.2-1.2,1.2h-.22c-2.48-.21-7.02-.57-10.99-.57s-6.59.51-6.59,4.12c0,2.13,1.63,3.48,4.89,5.39l7.01,4.18c5.88,3.48,7.8,6.52,7.8,10.7,0,7.23-5.32,10.28-13.25,10.28"/>
      <path class="cls-1" d="m333.21,37.67c0-7.59-3.05-11.42-9.29-11.42s-9.5,4.11-9.5,11.42v.35h18.79v-.35Zm4.96,5.1h-23.74v.86c0,8.15,3.83,11.9,10.35,11.9,4.12,0,8.86-.5,12.12-.99h.36c.57,0,1.13.28,1.13.99v2.4c0,.92-.28,1.42-1.42,1.64-4.04.78-7.44,1.2-12.19,1.2-8.15,0-16.58-3.89-16.58-17.51v-4.96c0-10.07,5.59-17.51,15.73-17.51s15.59,7.38,15.59,17.44v2.98c0,.92-.49,1.56-1.34,1.56h0Z"/>
      <path class="cls-1" d="m375.22,60.27h-3.69c-.78,0-1.28-.64-1.28-1.42v-25.31c0-5.32-1.34-7.37-6.16-7.37h-5.03c-4.82,0-6.16,2.05-6.16,7.37v25.31c0,.78-.5,1.42-1.28,1.42h-3.68c-.78,0-1.28-.64-1.28-1.42v-25.31c0-10.92,7.59-12.76,12.4-12.76h5.03c4.82,0,12.4,1.84,12.4,12.76v25.31c0,.78-.5,1.42-1.28,1.42"/>
      <path class="cls-1" d="m402.48,60.34c-1.35.21-4.25.43-6.8.43-6.67,0-10.49-2.19-10.49-9.85V14.34c0-.71.64-1.21,1.42-1.35l3.48-.57h.14c.71,0,1.2.63,1.2,1.34v7.51h11.06c.78,0,1.34.5,1.34,1.28v2.42c0,.71-.57,1.28-1.34,1.28h-11.06v24.67c0,4.11,1.35,4.82,5.25,4.82h5.74c.99,0,1.49.29,1.49,1v2.41c0,.63-.35,1.07-1.42,1.21"/>
      <polygon class="cls-1" points="443.5 33.05 437.06 39.48 443.5 45.86 443.5 65.91 456.64 65.91 456.64 78.91 443.47 78.91 430.31 65.94 430.3 65.94 430.3 48.59 421.21 39.5 430.3 30.41 430.3 12.97 430.31 12.97 443.47 0 456.64 0 456.64 12.99 443.5 12.99 443.5 33.05"/>
      <g>
        <path class="cls-1" d="m10.4,58.18c0,1.73-.41,2.06-2.23,2.06H2.23c-1.82,0-2.23-.33-2.23-2.06V10.25c0-2.48.66-3.14,2.89-3.46,3.05-.41,6.77-.66,11.96-.66,8.08,0,13.29,1.07,16.91,3.88,2.89,2.31,4.21,6.02,4.21,11.63v1.4c0,7.51-3.22,12.87-10.23,15.26l12.21,20.21c.66,1.07.17,1.73-1.9,1.73h-6.02c-1.98,0-2.72-.58-3.46-1.82l-10.32-18.4c-.33-.66-.75-.83-1.65-.83h-4.21v18.97h0Zm.99-43.48c-.75.08-.99.33-.99,1.15v14.85h3.63c4.79,0,7.51-.49,8.99-1.57,1.73-1.24,2.31-3.46,2.31-6.27v-.99c0-2.89-.41-4.46-1.65-5.61-1.32-1.24-3.63-1.73-8.17-1.73-1.65,0-3.05,0-4.12.17h0Z"/>
        <path class="cls-1" d="m54.86,36.98c0,4.46.17,8.25.58,12.46.17,1.9.91,2.31,2.64,2.31h17.9c1.9,0,2.14.41,2.14,1.98v4.54c0,1.49-.25,1.98-2.14,1.98h-18.89c-4.21,0-7.01-.49-8.83-1.98-1.82-1.49-2.39-3.72-2.89-7.59-.49-4.37-.75-10.4-.75-15.43v-3.38c0-4.79.25-11.05.75-15.43.41-4.04,1.4-6.27,3.22-7.76,1.9-1.49,4.62-1.82,8.5-1.82h18.97c1.9,0,2.06.41,2.06,1.98v4.54c0,1.49-.17,1.98-2.06,1.98h-17.99c-1.57,0-2.56.58-2.72,2.48-.25,2.89-.49,6.6-.49,10.64h18.48c1.9,0,2.06.41,2.06,1.98v4.54c0,1.49-.17,1.98-2.06,1.98h-18.48v.02Z"/>
        <path class="cls-1" d="m89.92,60.16c-2.23-.17-2.89-.91-2.89-3.38V10.41c0-2.48.66-3.22,2.89-3.46,3.3-.33,7.09-.49,11.55-.49,9.74,0,15.76,1.73,20.13,5.53,4.7,4.12,6.77,10.15,6.77,19.23v4.7c0,8.74-2.31,15.1-7.26,18.97-5.03,3.96-10.81,5.36-21.78,5.36-3.22,0-7.01.08-9.4-.08h0Zm8.91-45.21c-.99.08-1.4.49-1.4,1.49v33.58c0,1.4.58,1.9,1.98,1.9h2.56c11.63,0,15.76-4.54,15.76-16.75v-3.63c0-12.46-3.38-16.67-16-16.67-1.24,0-2.06,0-2.89.08h0Z"/>
        <path class="cls-1" d="m146.84,36.98c0,4.46.17,8.25.58,12.46.17,1.9.91,2.31,2.64,2.31h17.9c1.9,0,2.14.41,2.14,1.98v4.54c0,1.49-.25,1.98-2.14,1.98h-18.89c-4.21,0-7.01-.49-8.83-1.98-1.82-1.49-2.39-3.72-2.89-7.59-.49-4.37-.75-10.4-.75-15.43v-3.38c0-4.79.25-11.05.75-15.43.41-4.04,1.4-6.27,3.22-7.76,1.9-1.49,4.62-1.82,8.5-1.82h18.97c1.9,0,2.06.41,2.06,1.98v4.54c0,1.49-.17,1.98-2.06,1.98h-17.99c-1.57,0-2.56.58-2.72,2.48-.25,2.89-.49,6.6-.49,10.64h18.48c1.9,0,2.06.41,2.06,1.98v4.54c0,1.49-.17,1.98-2.06,1.98h-18.48v.02Z"/>
      </g>
    </g>
  </g>
</svg>